<svg width="253" height="70" viewBox="0 0 253 70" fill="none" xmlns="http://www.w3.org/2000/svg">
<path d="M25.7003 40H3.90031C2.55031 40 1.40031 38.9 1.40031 37.5V3.19998C1.40031 1.79998 2.55031 0.699978 3.90031 0.699978C5.30031 0.699978 6.40031 1.79998 6.40031 3.19998V35H25.7003C27.1003 35 28.2003 36.1 28.2003 37.5C28.2003 38.9 27.1003 40 25.7003 40Z" fill="white"/>
<path d="M58.6109 35C60.0109 35 61.1109 36.1 61.1109 37.5C61.1109 38.9 60.0109 40 58.6109 40H34.7109C33.3609 40 32.2109 38.9 32.2109 37.5V3.19998C32.2109 1.79998 33.3609 0.699978 34.7109 0.699978H58.1109C59.5109 0.699978 60.6109 1.79998 60.6109 3.19998C60.6109 4.59998 59.5109 5.69998 58.1109 5.69998H37.2109V17.75H55.7109C57.1109 17.75 58.2109 18.9 58.2109 20.25C58.2109 21.65 57.1109 22.75 55.7109 22.75H37.2109V35H58.6109Z" fill="white"/>
<path d="M81.971 40.1C80.921 40.1 80.021 39.5 79.621 38.55L65.321 3.94998C64.821 2.69998 65.421 1.24998 66.671 0.699978C67.971 0.149976 69.421 0.799977 69.971 2.04998L81.971 31.05L93.971 2.04998C94.471 0.799977 95.971 0.149976 97.221 0.699978C98.521 1.24998 99.121 2.69998 98.571 3.94998L84.271 38.55C83.871 39.5 82.971 40.1 81.971 40.1Z" fill="white"/>
<path d="M129.167 35C130.567 35 131.667 36.1 131.667 37.5C131.667 38.9 130.567 40 129.167 40H105.267C103.917 40 102.767 38.9 102.767 37.5V3.19998C102.767 1.79998 103.917 0.699978 105.267 0.699978H128.667C130.067 0.699978 131.167 1.79998 131.167 3.19998C131.167 4.59998 130.067 5.69998 128.667 5.69998H107.767V17.75H126.268C127.668 17.75 128.768 18.9 128.768 20.25C128.768 21.65 127.668 22.75 126.268 22.75H107.767V35H129.167Z" fill="white"/>
<path d="M159.978 40H138.178C136.828 40 135.678 38.9 135.678 37.5V3.19998C135.678 1.79998 136.828 0.699978 138.178 0.699978C139.578 0.699978 140.678 1.79998 140.678 3.19998V35H159.978C161.378 35 162.478 36.1 162.478 37.5C162.478 38.9 161.378 40 159.978 40Z" fill="white"/>
<path d="M201.544 40.6C197.894 40.6 194.744 39.85 192.194 38.35C189.994 37.1 188.294 35.35 187.044 33.1C184.994 29.3 184.994 25.35 184.994 24.05V3.19998C184.994 1.84998 186.144 0.699978 187.494 0.699978C188.894 0.699978 189.994 1.84998 189.994 3.19998V24.05C189.994 25.05 189.994 28.05 191.444 30.7C192.244 32.15 193.294 33.25 194.694 34.05C196.444 35.05 198.744 35.6 201.544 35.6C204.344 35.6 206.644 35.05 208.394 34.05C209.744 33.25 210.844 32.15 211.594 30.75C213.044 28.05 213.044 25.05 213.044 24.05V3.19998C213.044 1.84998 214.194 0.699978 215.544 0.699978C216.944 0.699978 218.044 1.84998 218.044 3.19998V24.05C218.044 25.35 218.044 29.35 215.994 33.1C214.144 36.55 210.144 40.6 201.544 40.6Z" fill="white"/>
<path d="M224.555 40C223.205 40 222.055 38.9 222.055 37.5V3.19998C222.055 1.79998 223.205 0.699978 224.555 0.699978H239.405C239.605 0.699978 240.805 0.699978 242.355 1.09998C244.555 1.64998 246.505 2.74998 248.005 4.19998C249.105 5.29998 250.005 6.64998 250.605 8.19998C251.255 9.89998 251.605 11.85 251.605 14C251.605 18.75 249.605 22.35 245.855 24.5C243.155 26.05 239.555 26.8 235.105 26.8C233.755 26.8 232.605 25.7 232.605 24.3C232.605 22.9 233.755 21.8 235.105 21.8C238.655 21.8 241.455 21.25 243.355 20.15C245.555 18.9 246.605 16.95 246.605 14C246.605 12 246.205 10.35 245.505 9.09998C244.955 8.09998 244.155 7.34998 243.205 6.79998C241.405 5.74998 239.555 5.69998 239.405 5.69998H227.055V37.5C227.055 38.9 225.955 40 224.555 40Z" fill="white"/>
<path d="M15.1381 46.992C15.9221 46.992 16.5381 47.636 16.5381 48.392C16.5381 49.176 15.9221 49.792 15.1381 49.792H3.37812V56.82H13.4301C14.1861 56.82 14.8301 57.464 14.8301 58.22C14.8301 59.004 14.1861 59.62 13.4301 59.62H3.37812V67.6C3.37812 68.356 2.76213 69 1.97812 69C1.19412 69 0.578125 68.356 0.578125 67.6V48.392C0.578125 47.636 1.19412 46.992 1.97812 46.992H15.1381Z" fill="#C5BAAA"/>
<path d="M42.7291 69C41.9731 69 41.3291 68.384 41.3291 67.6V48.392C41.3291 47.636 41.9731 46.992 42.7291 46.992C43.5131 46.992 44.1291 47.636 44.1291 48.392V67.6C44.1291 68.384 43.5131 69 42.7291 69Z" fill="#C5BAAA"/>
<path d="M85.4131 46.992C86.1971 46.992 86.8131 47.608 86.8131 48.392C86.8131 49.176 86.1971 49.792 85.4131 49.792H79.2811V67.6C79.2811 68.384 78.6371 69 77.8811 69C77.0971 69 76.4811 68.384 76.4811 67.6V49.792H70.3211C69.5371 49.792 68.9211 49.176 68.9211 48.392C68.9211 47.608 69.5371 46.992 70.3211 46.992H85.4131Z" fill="#C5BAAA"/>
<path d="M129.394 68.888C128.834 69.056 128.134 68.972 127.77 68.524L114.246 52.256V67.6C114.246 68.384 113.63 69 112.846 69C112.062 69 111.446 68.384 111.446 67.6V48.392C111.446 47.804 111.81 47.272 112.37 47.076C112.93 46.88 113.546 47.048 113.91 47.496L127.462 63.736V48.364C127.462 47.58 128.078 46.964 128.862 46.964C129.618 46.964 130.262 47.58 130.262 48.364V67.628C130.262 68.216 129.982 68.72 129.394 68.888Z" fill="#C5BAAA"/>
<path d="M169.685 66.2C170.469 66.2 171.085 66.816 171.085 67.6C171.085 68.384 170.469 69 169.685 69H156.301C155.545 69 154.901 68.384 154.901 67.6V48.392C154.901 47.608 155.545 46.992 156.301 46.992H169.405C170.189 46.992 170.805 47.608 170.805 48.392C170.805 49.176 170.189 49.792 169.405 49.792H157.701V56.54H168.061C168.845 56.54 169.461 57.184 169.461 57.94C169.461 58.724 168.845 59.34 168.061 59.34H157.701V66.2H169.685Z" fill="#C5BAAA"/>
<path d="M203.962 69.448C203.234 69.448 202.478 69.392 201.75 69.28C200.406 69.056 199.146 68.664 198.166 68.104C196.934 67.46 196.122 66.592 195.786 65.64C195.45 64.66 196.486 63.428 197.494 63.932C197.746 64.072 197.914 64.324 198.082 64.548C199.09 65.78 200.658 66.312 202.17 66.564C203.458 66.76 204.774 66.732 205.838 66.508C207.154 66.228 208.414 65.556 208.918 64.268C209.17 63.624 209.226 62.896 209.002 62.252C208.358 60.348 205.978 59.648 203.962 59.228C202.618 58.948 201.274 58.612 200.014 58.08C198.67 57.548 197.326 56.736 196.57 55.448C195.646 53.908 195.814 51.472 196.374 50.324C198.082 46.908 201.386 46.516 203.318 46.516C204.774 46.516 206.286 46.768 207.49 47.244C209.03 47.832 210.234 48.84 210.598 49.904C210.766 50.352 210.654 50.856 210.346 51.22C210.01 51.64 209.394 51.836 208.89 51.556C208.75 51.472 208.638 51.332 208.498 51.22C207.938 50.604 207.098 50.016 206.062 49.624C205.194 49.288 204.242 49.26 203.318 49.26C201.134 49.26 198.642 50.1 198.642 52.648C198.642 55 200.686 55.7 205.362 56.848C211.354 58.304 212.138 61.608 211.578 64.408C210.738 68.58 205.81 69.448 203.962 69.448Z" fill="#C5BAAA"/>
<path d="M244.628 69.448C243.9 69.448 243.144 69.392 242.416 69.28C241.072 69.056 239.812 68.664 238.832 68.104C237.6 67.46 236.788 66.592 236.452 65.64C236.116 64.66 237.152 63.428 238.16 63.932C238.412 64.072 238.58 64.324 238.748 64.548C239.756 65.78 241.324 66.312 242.836 66.564C244.124 66.76 245.44 66.732 246.504 66.508C247.82 66.228 249.08 65.556 249.584 64.268C249.836 63.624 249.892 62.896 249.668 62.252C249.024 60.348 246.644 59.648 244.628 59.228C243.284 58.948 241.94 58.612 240.68 58.08C239.336 57.548 237.992 56.736 237.236 55.448C236.312 53.908 236.48 51.472 237.04 50.324C238.748 46.908 242.052 46.516 243.984 46.516C245.44 46.516 246.952 46.768 248.156 47.244C249.696 47.832 250.9 48.84 251.264 49.904C251.432 50.352 251.32 50.856 251.012 51.22C250.676 51.64 250.06 51.836 249.556 51.556C249.416 51.472 249.304 51.332 249.164 51.22C248.604 50.604 247.764 50.016 246.728 49.624C245.86 49.288 244.908 49.26 243.984 49.26C241.8 49.26 239.308 50.1 239.308 52.648C239.308 55 241.352 55.7 246.028 56.848C252.02 58.304 252.804 61.608 252.244 64.408C251.404 68.58 246.476 69.448 244.628 69.448Z" fill="#C5BAAA"/>
</svg>
