<svg width="253" height="69" viewBox="0 0 253 69" fill="none" xmlns="http://www.w3.org/2000/svg">
<path d="M224.555 39.497C223.205 39.497 222.055 38.397 222.055 36.997V2.69702C222.055 1.29702 223.205 0.197021 224.555 0.197021H239.405C239.605 0.197021 240.805 0.197022 242.355 0.59702C244.555 1.14702 246.505 2.24702 248.005 3.69702C249.105 4.79702 250.005 6.14702 250.605 7.69702C251.255 9.39702 251.605 11.347 251.605 13.497C251.605 18.247 249.605 21.847 245.855 23.997C243.155 25.547 239.555 26.297 235.105 26.297C233.755 26.297 232.605 25.197 232.605 23.797C232.605 22.397 233.755 21.297 235.105 21.297C238.655 21.297 241.455 20.747 243.355 19.647C245.555 18.397 246.605 16.447 246.605 13.497C246.605 11.497 246.205 9.84702 245.505 8.59702C244.955 7.59702 244.155 6.84702 243.205 6.29702C241.405 5.24702 239.555 5.19702 239.405 5.19702H227.055V36.997C227.055 38.397 225.955 39.497 224.555 39.497Z" fill="black"/>
<path d="M201.544 40.097C197.894 40.097 194.744 39.347 192.194 37.847C189.994 36.597 188.294 34.847 187.044 32.597C184.994 28.797 184.994 24.847 184.994 23.547V2.69702C184.994 1.34702 186.144 0.197021 187.494 0.197021C188.894 0.197021 189.994 1.34702 189.994 2.69702V23.547C189.994 24.547 189.994 27.547 191.444 30.197C192.244 31.647 193.294 32.747 194.694 33.547C196.444 34.547 198.744 35.097 201.544 35.097C204.344 35.097 206.644 34.547 208.394 33.547C209.744 32.747 210.844 31.647 211.594 30.247C213.044 27.547 213.044 24.547 213.044 23.547V2.69702C213.044 1.34702 214.194 0.197021 215.544 0.197021C216.944 0.197021 218.044 1.34702 218.044 2.69702V23.547C218.044 24.847 218.044 28.847 215.994 32.597C214.144 36.047 210.144 40.097 201.544 40.097Z" fill="black"/>
<path d="M159.978 39.497H138.178C136.828 39.497 135.678 38.397 135.678 36.997V2.69702C135.678 1.29702 136.828 0.197021 138.178 0.197021C139.578 0.197021 140.678 1.29702 140.678 2.69702V34.497H159.978C161.378 34.497 162.478 35.597 162.478 36.997C162.478 38.397 161.378 39.497 159.978 39.497Z" fill="black"/>
<path d="M129.168 34.497C130.568 34.497 131.668 35.597 131.668 36.997C131.668 38.397 130.568 39.497 129.168 39.497H105.268C103.918 39.497 102.768 38.397 102.768 36.997V2.69702C102.768 1.29702 103.918 0.197021 105.268 0.197021H128.668C130.068 0.197021 131.168 1.29702 131.168 2.69702C131.168 4.09702 130.068 5.19702 128.668 5.19702H107.768V17.247H126.268C127.668 17.247 128.768 18.397 128.768 19.747C128.768 21.147 127.668 22.247 126.268 22.247H107.768V34.497H129.168Z" fill="black"/>
<path d="M81.971 39.597C80.921 39.597 80.021 38.997 79.621 38.047L65.321 3.44699C64.821 2.19699 65.421 0.746986 66.671 0.196987C67.971 -0.353015 69.421 0.296987 69.971 1.54699L81.971 30.547L93.971 1.54699C94.471 0.296987 95.971 -0.353015 97.221 0.196987C98.521 0.746986 99.121 2.19699 98.571 3.44699L84.271 38.047C83.871 38.997 82.971 39.597 81.971 39.597Z" fill="black"/>
<path d="M58.6109 34.497C60.0109 34.497 61.1109 35.597 61.1109 36.997C61.1109 38.397 60.0109 39.497 58.6109 39.497H34.7109C33.3609 39.497 32.2109 38.397 32.2109 36.997V2.69702C32.2109 1.29702 33.3609 0.197021 34.7109 0.197021H58.1109C59.5109 0.197021 60.6109 1.29702 60.6109 2.69702C60.6109 4.09702 59.5109 5.19702 58.1109 5.19702H37.2109V17.247H55.7109C57.1109 17.247 58.2109 18.397 58.2109 19.747C58.2109 21.147 57.1109 22.247 55.7109 22.247H37.2109V34.497H58.6109Z" fill="black"/>
<path d="M25.7004 39.497H3.90039C2.55039 39.497 1.40039 38.397 1.40039 36.997V2.69702C1.40039 1.29702 2.55039 0.197021 3.90039 0.197021C5.30039 0.197021 6.40039 1.29702 6.40039 2.69702V34.497H25.7004C27.1004 34.497 28.2004 35.597 28.2004 36.997C28.2004 38.397 27.1004 39.497 25.7004 39.497Z" fill="black"/>
<path d="M244.628 68.945C243.9 68.945 243.144 68.889 242.416 68.777C241.072 68.553 239.812 68.161 238.832 67.601C237.6 66.957 236.788 66.089 236.452 65.137C236.116 64.157 237.152 62.925 238.16 63.429C238.412 63.569 238.58 63.821 238.748 64.045C239.756 65.277 241.324 65.809 242.836 66.061C244.124 66.257 245.44 66.229 246.504 66.005C247.82 65.725 249.08 65.053 249.584 63.765C249.836 63.121 249.892 62.393 249.668 61.749C249.024 59.845 246.644 59.145 244.628 58.725C243.284 58.445 241.94 58.109 240.68 57.577C239.336 57.045 237.992 56.233 237.236 54.945C236.312 53.405 236.48 50.969 237.04 49.821C238.748 46.405 242.052 46.013 243.984 46.013C245.44 46.013 246.952 46.265 248.156 46.741C249.696 47.329 250.9 48.337 251.264 49.401C251.432 49.849 251.32 50.353 251.012 50.717C250.676 51.137 250.06 51.333 249.556 51.053C249.416 50.969 249.304 50.829 249.164 50.717C248.604 50.101 247.764 49.513 246.728 49.121C245.86 48.785 244.908 48.757 243.984 48.757C241.8 48.757 239.308 49.597 239.308 52.145C239.308 54.497 241.352 55.197 246.028 56.345C252.02 57.801 252.804 61.105 252.244 63.905C251.404 68.077 246.476 68.945 244.628 68.945Z" fill="black"/>
<path d="M203.962 68.945C203.234 68.945 202.478 68.889 201.75 68.777C200.406 68.553 199.146 68.161 198.166 67.601C196.934 66.957 196.122 66.089 195.786 65.137C195.45 64.157 196.486 62.925 197.494 63.429C197.746 63.569 197.914 63.821 198.082 64.045C199.09 65.277 200.658 65.809 202.17 66.061C203.458 66.257 204.774 66.229 205.838 66.005C207.154 65.725 208.414 65.053 208.918 63.765C209.17 63.121 209.226 62.393 209.002 61.749C208.358 59.845 205.978 59.145 203.962 58.725C202.618 58.445 201.274 58.109 200.014 57.577C198.67 57.045 197.326 56.233 196.57 54.945C195.646 53.405 195.814 50.969 196.374 49.821C198.082 46.405 201.386 46.013 203.318 46.013C204.774 46.013 206.286 46.265 207.49 46.741C209.03 47.329 210.234 48.337 210.598 49.401C210.766 49.849 210.654 50.353 210.346 50.717C210.01 51.137 209.394 51.333 208.89 51.053C208.75 50.969 208.638 50.829 208.498 50.717C207.938 50.101 207.098 49.513 206.062 49.121C205.194 48.785 204.242 48.757 203.318 48.757C201.134 48.757 198.642 49.597 198.642 52.145C198.642 54.497 200.686 55.197 205.362 56.345C211.354 57.801 212.138 61.105 211.578 63.905C210.738 68.077 205.81 68.945 203.962 68.945Z" fill="black"/>
<path d="M169.685 65.697C170.469 65.697 171.085 66.313 171.085 67.097C171.085 67.881 170.469 68.497 169.685 68.497H156.301C155.545 68.497 154.901 67.881 154.901 67.097V47.889C154.901 47.105 155.545 46.489 156.301 46.489H169.405C170.189 46.489 170.805 47.105 170.805 47.889C170.805 48.673 170.189 49.289 169.405 49.289H157.701V56.037H168.061C168.845 56.037 169.461 56.681 169.461 57.437C169.461 58.221 168.845 58.837 168.061 58.837H157.701V65.697H169.685Z" fill="black"/>
<path d="M129.394 68.385C128.834 68.553 128.134 68.469 127.77 68.021L114.246 51.753V67.097C114.246 67.881 113.63 68.497 112.846 68.497C112.062 68.497 111.446 67.881 111.446 67.097V47.889C111.446 47.301 111.81 46.769 112.37 46.573C112.93 46.377 113.546 46.545 113.91 46.993L127.462 63.233V47.861C127.462 47.077 128.078 46.461 128.862 46.461C129.618 46.461 130.262 47.077 130.262 47.861V67.125C130.262 67.713 129.982 68.217 129.394 68.385Z" fill="black"/>
<path d="M85.413 46.489C86.197 46.489 86.813 47.105 86.813 47.889C86.813 48.673 86.197 49.289 85.413 49.289H79.281V67.097C79.281 67.881 78.637 68.497 77.881 68.497C77.097 68.497 76.481 67.881 76.481 67.097V49.289H70.321C69.537 49.289 68.921 48.673 68.921 47.889C68.921 47.105 69.537 46.489 70.321 46.489H85.413Z" fill="black"/>
<path d="M42.729 68.497C41.973 68.497 41.329 67.881 41.329 67.097V47.889C41.329 47.133 41.973 46.489 42.729 46.489C43.513 46.489 44.129 47.133 44.129 47.889V67.097C44.129 67.881 43.513 68.497 42.729 68.497Z" fill="black"/>
<path d="M15.1381 46.489C15.9221 46.489 16.5381 47.133 16.5381 47.889C16.5381 48.673 15.9221 49.289 15.1381 49.289H3.37812V56.317H13.4301C14.1861 56.317 14.8301 56.961 14.8301 57.717C14.8301 58.501 14.1861 59.117 13.4301 59.117H3.37812V67.097C3.37812 67.853 2.76213 68.497 1.97812 68.497C1.19412 68.497 0.578125 67.853 0.578125 67.097V47.889C0.578125 47.133 1.19412 46.489 1.97812 46.489H15.1381Z" fill="black"/>
</svg>
